PathFileType	3	(X/Y/Z)	D:\minhoCalibration\240510\subject5_KPNP\preferred\preferred01.trc
DataRate	CameraRate	NumFrames	NumMarkers	Units	OrigDataRate	OrigDataStartFrame	OrigNumFrames
200.0	200.0	15	10	mm	200.0	210	121	
Frame#	Time	Left_Ankle_Outer1			Left_Ankle_Inner1			Left_Knee_Outer1			Left_Knee_Inner1			Left_Wrist1			Right_Wrist1			Right_Knee_Inner1			Right_Knee_Outer1			Right_Ankle_Inner1			Right_Ankle_Outer1			
		X1	Y1	Z1	X2	Y2	Z2	X3	Y3	Z3	X4	Y4	Z4	X5	Y5	Z5	X6	Y6	Z6	X7	Y7	Z7	X8	Y8	Z8	X9	Y9	Z9	X10	Y10	Z10	
210	1.04	-601.12195	77.300774	-652.08215	-627.73315	89.280319	-605.6416	-435.36938	525.61041	-639.52258	-480.02896	515.38519	-557.49152	-461.46585	995.57806	-777.00195	-628.44037	1154.5272	-539.40143	-518.74481	905.12146	-131.92302	-587.94916	961.58759	-131.66014	-510.20187	703.94287	259.96039	-606.25061	719.85327	260.45767
211	1.045	-601.21106	77.199806	-652.09937	-627.82208	89.023911	-605.87457	-436.13181	525.5929	-639.31512	-481.8663	515.6073	-557.8468	-459.19757	996.50201	-775.70844	-630.64612	1153.2213	-539.94843	-521.9707	899.26007	-133.62846	-592.41046	954.29993	-133.60103	-519.10254	686.95288	252.98482	-615.62781	701.97266	252.46214
212	1.05	-601.21271	77.208519	-652.04285	-627.04291	88.287537	-607.27521	-437.05701	525.66022	-639.12604	-483.82303	516.11481	-558.28442	-456.48755	997.44891	-774.79144	-632.99371	1151.859	-540.39954	-525.20422	893.33136	-135.26529	-596.65948	946.97137	-135.64894	-527.99304	669.8858	245.52635	-624.84937	684.04413	244.05247
213	1.055	-601.22552	77.131516	-652.03711	-627.70087	88.900795	-606.18427	-437.83212	525.92218	-639.21869	-485.74252	516.25867	-558.88214	-454.22601	998.31146	-773.23682	-635.33344	1150.6093	-540.6817	-528.58203	887.17334	-136.83147	-601.21759	939.30157	-137.60008	-537.00604	652.43469	237.53549	-633.72357	665.72296	234.3438
214	1.06	-601.3653	77.158066	-652.01599	-627.64984	89.24778	-605.93237	-438.8609	526.10986	-639.48285	-487.56613	516.62451	-559.67969	-451.953	999.23895	-771.56915	-637.64545	1149.1453	-541.67749	-531.95068	880.79358	-138.4599	-605.6059	931.45123	-139.68459	-545.97333	635.06738	228.86572	-642.30963	647.18506	223.67085
215	1.065	-601.36035	77.276421	-651.98602	-627.76776	88.928017	-606.41315	-439.8891	526.44806	-639.91534	-489.51248	517.03101	-560.4989	-449.604	1000.2454	-769.79095	-640.04816	1147.7434	-542.41797	-535.35962	874.14813	-140.09879	-609.43848	923.41144	-141.73444	-554.94141	617.2088	219.87993	-651.44727	629.17352	213.12109
216	1.07	-601.45673	77.188408	-652.11682	-627.89594	89.103745	-606.08783	-441.06229	526.7381	-640.51935	-492.18542	517.10394	-561.42816	-447.16092	1001.3455	-768.00629	-642.62408	1146.3748	-543.34009	-538.84845	867.08771	-142.0145	-613.49695	915.51605	-144.0746	-563.86499	599.47906	209.80847	-660.53156	610.87708	201.67464
217	1.075	-601.39612	77.16906	-652.33917	-627.82013	88.997299	-606.61353	-442.37326	527.14642	-641.12097	-493.68643	517.75964	-562.37689	-444.56671	1002.6376	-766.18872	-644.93964	1144.6101	-545.42261	-542.3324	859.70587	-144.09073	-617.20911	907.22314	-146.95172	-573.0705	581.36981	198.98523	-669.26953	592.64227	189.3331
218	1.08	-601.23138	77.106247	-652.6355	-627.45825	88.56839	-607.6474	-443.75784	527.46667	-641.71771	-495.65829	518.08545	-563.25751	-441.83881	1004.1345	-764.28485	-647.51532	1143.0111	-546.36444	-546.06226	851.98096	-146.47588	-620.95483	899.25574	-149.35478	-582.12207	563.39899	187.67632	-678.02051	574.48779	176.24562
219	1.085	-601.10278	77.02282	-652.99854	-627.85065	89.028008	-607.41241	-444.91196	527.96393	-642.29352	-497.65451	518.4469	-564.04712	-439.35641	1005.5427	-762.21783	-650.13763	1141.2344	-547.34387	-549.9328	843.97931	-149.22293	-625.02332	891.29572	-151.95006	-591.33344	545.1745	175.74495	-686.95544	556.3288	162.65218
220	1.09	-600.79504	77.055313	-653.39594	-627.81024	89.035156	-607.60675	-446.17508	528.23401	-642.77679	-499.57855	518.72339	-564.9201	-436.85364	1006.9651	-760.078	-652.71161	1139.3999	-548.40942	-554.0708	835.75995	-152.46536	-629.04443	883.37653	-155.18658	-600.27203	527.13165	162.8331	-695.30359	539.0954	148.76331
221	1.095	-600.69354	77.154007	-653.75079	-627.49304	89.369713	-607.96423	-447.01309	528.70172	-643.20184	-501.40292	519.03772	-565.70532	-434.18787	1008.4164	-758.05353	-655.06146	1137.4816	-549.68976	-558.375	827.29285	-156.11423	-633.07452	875.13892	-158.56703	-609.22937	509.06534	149.49791	-703.81482	521.65479	134.10101
222	1.1	-600.57513	77.037163	-653.96667	-627.47479	89.361305	-608.19385	-447.78931	529.00696	-643.47815	-503.13425	519.26697	-566.61768	-431.62143	1009.7799	-755.94458	-657.35889	1135.6235	-550.95081	-562.92908	818.55707	-160.29543	-637.18066	866.43866	-162.22655	-617.94397	491.31506	135.39247	-712.70551	504.10342	119.23491
223	1.105	-600.54425	77.096214	-654.02722	-627.68524	89.055878	-608.77075	-448.48474	529.28149	-643.64398	-504.84628	519.62152	-567.34027	-429.22845	1011.0131	-753.7475	-659.57367	1133.9275	-552.16797	-567.45422	809.27356	-165.25926	-641.49103	857.71558	-166.3	-626.6781	473.20615	120.65826	-720.34155	487.84528	104.26468
224	1.11	-600.4826	77.211548	-654.14362	-627.58295	89.422821	-608.38367	-448.92487	529.58722	-643.78406	-506.41702	519.87701	-568.17798	-426.90088	1012.1359	-751.66803	-661.5235	1132.2573	-553.38751	-572.41962	799.83459	-170.03069	-645.92908	848.73535	-170.61108	-634.94336	455.78763	105.73736	-728.90967	470.93713	88.404221
